nColumns=19
nRows=40
DataType=double
version=3
OpenSimVersion=4.1
endheader
time	ground_force_calcn_r_vx	ground_force_calcn_r_vy	ground_force_calcn_r_vz	ground_force_calcn_r_px	ground_force_calcn_r_py	ground_force_calcn_r_pz	ground_force_calcn_r_mx	ground_force_calcn_r_my	ground_force_calcn_r_mz	ground_force_calcn_l_vx	ground_force_calcn_l_vy	ground_force_calcn_l_vz	ground_force_calcn_l_px	ground_force_calcn_l_py	ground_force_calcn_l_pz	ground_force_calcn_l_mx	ground_force_calcn_l_my	ground_force_calcn_l_mz
0	-6.2516	69.4063	9.31823	0.103372	0	-0.201684	-0.0309673	0.343805	0.0461579	0	0	0	0	0	0	0	0	0
0.01	-11.1348	97.8288	10.7442	0.110669	0	-0.202115	-0.0333526	0.293031	0.0321827	0	0	0	0	0	0	0	0	0
0.02	-17.3302	130.976	11.9692	0.117511	0	-0.202343	-0.0318547	0.240749	0.0220007	0	0	0	0	0	0	0	0	0
0.03	-24.9087	168.422	12.8287	0.123386	0	-0.202377	-0.0274828	0.185827	0.0141544	0	0	0	0	0	0	0	0	0
0.04	-33.7924	209.462	13.1425	0.128722	0	-0.202293	-0.0208443	0.129204	0.00810673	0	0	0	0	0	0	0	0	0
0.05	-43.7411	253.175	12.7371	0.133744	0	-0.202127	-0.0126342	0.0731271	0.003679	0	0	0	0	0	0	0	0	0
0.06	-54.4195	298.447	11.4761	0.138567	0	-0.201902	-0.00387725	0.0212636	0.000817644	0	0	0	0	0	0	0	0	0
0.07	-65.4391	344.063	9.29536	0.143245	0	-0.201643	0.00388441	-0.0204233	-0.000551765	0	0	0	0	0	0	0	0	0
0.08	-76.3737	388.834	6.24337	0.147784	0	-0.201381	0.0084121	-0.0428277	-0.000687669	0	0	0	0	0	0	0	0	0
0.09	-86.7862	431.696	2.50825	0.152165	0	-0.201157	0.00706663	-0.0351512	-0.000204236	0	0	0	0	0	0	0	0	0
0.1	-96.2593	471.806	-1.60181	0.156347	0	-0.201012	-0.0022656	0.0111046	-3.7701e-05	0	0	0	0	0	0	0	0	0
0.11	-104.448	508.629	-5.7346	0.160292	0	-0.200978	-0.0200989	0.0978752	-0.0011035	0	0	0	0	0	0	0	0	0
0.12	-111.107	541.914	-9.55465	0.163959	0	-0.201075	-0.0452181	0.220548	-0.00388854	0	0	0	0	0	0	0	0	0
0.13	-116.065	571.538	-12.777	0.167312	0	-0.20131	-0.075236	0.370485	-0.00828238	0	0	0	0	0	0	0	0	0
0.14	-119.226	597.365	-15.21	0.170328	0	-0.201677	-0.107038	0.536301	-0.0136552	0	0	0	0	0	0	0	0	0
0.15	-120.574	619.179	-16.7888	0.173002	0	-0.202157	-0.137312	0.705135	-0.0191195	0	0	0	0	0	0	0	0	0
0.16	-120.172	636.698	-17.5697	0.175351	0	-0.202724	-0.163237	0.864866	-0.023866	0	0	0	0	0	0	0	0	0
0.17	-118.161	649.623	-17.6981	0.177414	0	-0.203345	-0.182952	1.00584	-0.0274026	0	0	0	0	0	0	0	0	0
0.18	-114.747	657.719	-17.3655	0.179241	0	-0.203992	-0.195684	1.12164	-0.0296143	0	0	0	0	0	0	0	0	0
0.19	-110.187	660.882	-16.7646	0.180895	0	-0.204639	-0.20158	1.20904	-0.0306697	0	0	0	0	0	0	0	0	0
0.2	-104.759	659.2	-16.052	0.18244	0	-0.205273	-0.20141	1.26738	-0.0308617	0	0	0	0	0	0	0	0	0
0.21	-98.7426	652.999	-15.3265	0.183933	0	-0.205882	-0.196235	1.29773	-0.0304589	0	0	0	0	0	0	0	0	0
0.22	-92.3921	642.849	-14.6248	0.185425	0	-0.206468	-0.18712	1.30195	-0.0296192	0	0	0	0	0	0	0	0	0
0.23	-85.9223	629.525	-13.9334	0.186952	0	-0.207033	-0.174983	1.28205	-0.0283759	0	0	0	0	0	0	0	0	0
0.24	-79.5022	613.94	-13.2106	0.188538	0	-0.207584	-0.160537	1.23972	-0.0266759	0	0	0	0	0	0	0	0	0
0.25	-73.2574	597.055	-12.4106	0.190197	0	-0.208124	-0.144313	1.17616	-0.0244482	0	0	0	0	0	0	0	0	0
0.26	-67.2753	579.805	-11.5041	0.191935	0	-0.208659	-0.126737	1.09227	-0.0216721	0	0	0	0	0	0	0	0	0
0.27	-61.6113	563.041	-10.4888	0.19375	0	-0.209182	-0.108232	0.989092	-0.0184256	0	0	0	0	0	0	0	0	0
0.28	-56.2951	547.478	-9.39108	0.195647	0	-0.209687	-0.089259	0.868055	-0.0148901	0	0	0	0	0	0	0	0	0
0.29	-51.3369	533.67	-8.26054	0.197627	0	-0.210162	-0.0703144	0.73095	-0.0113142	0	0	0	0	0	0	0	0	0
0.3	-46.7319	522	-7.15878	0.199696	0	-0.21059	-0.0519059	0.579794	-0.00795137	0	0	0	0	0	0	0	0	0
0.31	-42.4638	512.682	-6.14861	0.201866	0	-0.210955	-0.0344908	0.41642	-0.00499414	0	0	0	0	0	0	0	0	0
0.32	-38.5055	505.784	-5.28547	0.204155	0	-0.211244	-0.0184414	0.242235	-0.00253137	0	0	0	0	0	0	0	0	0
0.33	-34.8208	501.252	-4.6127	0.206581	0	-0.211443	-0.00404394	0.0582131	-0.000535699	0	0	0	0	0	0	0	0	0
0.34	-31.3687	498.946	-4.15979	0.209163	0	-0.211548	0.00849315	-0.135091	0.00112627	0	0	0	0	0	0	0	0	0
0.35	-28.1059	498.667	-3.94314	0.21192	0	-0.211556	0.0190209	-0.337478	0.00266856	0	0	0	0	0	0	0	0	0
0.36	-24.99	500.186	-3.96787	0.214864	0	-0.211466	0.0274174	-0.548771	0.00435328	0	0	0	0	0	0	0	0	0
0.37	-21.9816	503.263	-4.23119	0.218002	0	-0.211286	0.0335636	-0.768428	0.00646057	0	0	0	0	0	0	0	0	0
0.38	-19.0436	507.665	-4.7256	0.22133	0	-0.211024	0.0373355	-0.99529	0.00926466	0	0	0	0	0	0	0	0	0
0.39	-16.14	513.177	-5.43921	0.224835	0	-0.210689	0.0386043	-1.22744	0.0130097	0	0	0	0	0	0	0	0	0
